<svg width="81" height="80" viewBox="0 0 81 80" fill="none" xmlns="http://www.w3.org/2000/svg">
<ellipse cx="40.5" cy="40" rx="40.5" ry="40" fill="#B6DAF1"/>
<path d="M40 28C32.82 28 27 32.925 27 39C27 42.368 28.7933 45.3785 31.6113 47.3965C31.6833 48.9325 31.4453 51.0534 29.3262 52.0312L29.3223 52.0332C29.2276 52.0692 29.1461 52.1331 29.0885 52.2165C29.031 52.2998 29.0001 52.3987 29 52.5C29 52.6326 29.0527 52.7598 29.1464 52.8536C29.2402 52.9473 29.3674 53 29.5 53C29.5119 53 29.5232 52.9981 29.5352 52.998C29.5378 52.9981 29.5404 52.9981 29.543 52.998C31.977 52.9824 34.0433 51.667 35.4688 50.2773C35.9207 49.8363 36.5509 49.6193 37.1719 49.7363C38.0819 49.9093 39.028 50 40 50C47.18 50 53 45.075 53 39C53 32.925 47.18 28 40 28Z" fill="#007AFF"/>
</svg>
