<svg width="28" height="28" viewBox="0 0 28 28" fill="none" xmlns="http://www.w3.org/2000/svg">
<rect width="28" height="28" rx="8" fill="#FFCC00"/>
<path d="M8 6.66666C7.26333 6.66666 6.66666 7.26332 6.66666 7.99999V20C6.66666 20.7367 7.26333 21.3333 8 21.3333H8.37109C8.14176 20.9393 8 20.488 8 20V7.99999C8 7.51199 8.14176 7.06066 8.37109 6.66666H8ZM10.6667 6.66666C9.93 6.66666 9.33333 7.26332 9.33333 7.99999V20C9.33333 20.7367 9.93 21.3333 10.6667 21.3333H11.0378C10.8084 20.9393 10.6667 20.488 10.6667 20V7.99999C10.6667 7.51199 10.8084 7.06066 11.0378 6.66666H10.6667ZM13.3333 6.66666C12.5967 6.66666 12 7.26332 12 7.99999V20C12 20.7367 12.5967 21.3333 13.3333 21.3333H20C20.7367 21.3333 21.3333 20.7367 21.3333 20V7.99999C21.3333 7.26332 20.7367 6.66666 20 6.66666H13.3333ZM13.3333 7.99999H20V19.3333H18C18 19.7013 17.7013 20 17.3333 20H16C15.632 20 15.3333 19.7013 15.3333 19.3333H13.3333V7.99999Z" fill="white"/>
</svg>
