<svg width="33" height="33" viewBox="0 0 33 33" fill="none" xmlns="http://www.w3.org/2000/svg">
<path d="M12.3557 12.2285C11.1545 13.4284 10.4791 15.0563 10.4786 16.7543C10.4778 18.452 11.1518 20.0806 12.352 21.2813C13.5524 22.4823 15.1805 23.1569 16.8785 23.1569C18.5762 23.1569 20.2046 22.4823 21.4048 21.2813C22.6049 20.0806 23.279 18.4519 23.2782 16.7543C23.2776 15.0563 22.6023 13.4284 21.401 12.2285C20.2011 11.0302 18.5743 10.3569 16.8785 10.3569C15.1824 10.3569 13.5559 11.0302 12.3557 12.2285ZM19.8969 19.7697L19.8972 19.77C19.0967 20.5695 18.0116 21.0183 16.8802 21.0181C15.7492 21.0175 14.6641 20.5679 13.8643 19.7676C13.0645 18.9676 12.6151 17.8826 12.6151 16.7514C12.6151 15.6201 13.0645 14.535 13.8643 13.735C14.6641 12.9349 15.7491 12.4851 16.8802 12.4848C18.0116 12.4843 19.0967 12.9331 19.8972 13.7326C20.6983 14.5329 21.1485 15.619 21.1485 16.7515C21.1485 17.8839 20.6983 18.9697 19.8972 19.7701L19.8969 19.7697ZM32.8784 15.0873C32.885 14.576 32.7077 14.0793 32.3788 13.6879C32.0498 13.2962 31.5912 13.0358 31.0865 12.954L28.0571 12.4848C27.8869 12.4547 27.7451 12.3372 27.6837 12.1755C27.6199 12.0238 27.64 11.8497 27.7371 11.7168L29.4971 9.28475C29.7863 8.87243 29.9205 8.37094 29.8755 7.86939C29.8308 7.36762 29.6098 6.89786 29.2517 6.54353L27.0118 4.27155C26.6527 3.9156 26.179 3.69886 25.6751 3.65995C25.171 3.62079 24.6694 3.76184 24.26 4.05825L21.7853 5.85016C21.6461 5.94225 21.4701 5.95893 21.3161 5.89462C21.1621 5.83057 21.0499 5.69375 21.0173 5.5302L20.4946 2.52225C20.4084 2.02128 20.1458 1.56766 19.7547 1.24321C19.3638 0.918482 18.8695 0.744346 18.3613 0.751493H15.1615C14.65 0.745142 14.1535 0.922453 13.7618 1.25115C13.3704 1.58011 13.11 2.03874 13.0282 2.54367L12.6122 5.57283C12.5794 5.73664 12.4675 5.8732 12.3134 5.93751C12.1594 6.00155 11.9834 5.98488 11.8442 5.89278L9.41213 4.13285C8.99981 3.8436 8.49832 3.70942 7.99677 3.75441C7.495 3.79913 7.02524 4.02038 6.67091 4.37818L4.39893 6.61812C4.04298 6.97724 3.82623 7.45096 3.78733 7.95482C3.74817 8.45897 3.88922 8.96049 4.18563 9.37018L5.97754 11.8446C6.06963 11.9841 6.08631 12.1598 6.022 12.3138C5.95795 12.4681 5.82113 12.58 5.65758 12.6126L2.64963 13.1353C2.14866 13.2218 1.69504 13.4841 1.37059 13.8752C1.04586 14.2664 0.871726 14.7605 0.878874 15.2686V18.4687C0.872522 18.98 1.04983 19.4767 1.37853 19.8681C1.70749 20.2598 2.16612 20.5202 2.67105 20.602L5.7002 21.018C5.87064 21.0479 6.01223 21.1654 6.07362 21.3271C6.15328 21.4697 6.15328 21.6433 6.07362 21.7857L4.26024 24.2178C3.97098 24.6301 3.8368 25.1316 3.88179 25.6334C3.92652 26.1349 4.14776 26.6047 4.50556 26.959L6.7455 29.231C7.10463 29.5869 7.57835 29.8037 8.0822 29.8429C8.58635 29.8818 9.08787 29.7407 9.49755 29.4443L11.9722 27.6524H11.972C12.1114 27.5603 12.2872 27.5436 12.4412 27.6079C12.5955 27.672 12.7074 27.8088 12.74 27.9723L13.2627 30.9803C13.3492 31.4813 13.6115 31.9349 14.0026 32.2593C14.3938 32.5841 14.8878 32.7585 15.396 32.7511H18.596C19.1073 32.7577 19.6041 32.5804 19.9955 32.2514C20.3872 31.9224 20.6476 31.4638 20.7293 30.9591L21.1454 27.9297C21.1753 27.7596 21.2928 27.6177 21.4545 27.5563C21.6061 27.4925 21.7803 27.5126 21.9131 27.6098L24.3452 29.3697C24.7575 29.659 25.259 29.7931 25.7608 29.7481C26.2623 29.7034 26.7321 29.4824 27.0864 29.1244L29.3158 26.8844C29.6717 26.5253 29.8885 26.0516 29.9274 25.5477C29.9665 25.0436 29.8255 24.5421 29.5291 24.1326L27.7798 21.658C27.6877 21.5187 27.671 21.3428 27.7353 21.1887C27.7994 21.0347 27.9362 20.9225 28.0997 20.8899L31.1077 20.3673C31.6087 20.281 32.0623 20.0185 32.3867 19.6273C32.7114 19.2364 32.8858 18.7421 32.8784 18.234L32.8784 15.0873ZM27.7477 18.7887C26.8567 18.9422 26.1075 19.5438 25.7647 20.3806C25.4223 21.2174 25.5347 22.1717 26.0624 22.9058L27.8438 25.3805L25.6144 27.6311L23.1185 25.8603V25.8605C22.3756 25.3492 21.4237 25.2513 20.5925 25.6012C19.7615 25.9508 19.1655 26.7 19.012 27.5884L18.5319 30.6178H15.3321L14.8095 27.6099H14.8092C14.6583 26.7149 14.052 25.963 13.2094 25.6259C12.8937 25.4999 12.5573 25.4345 12.2172 25.434C11.6694 25.4292 11.1346 25.6012 10.6921 25.9246L8.24934 27.706L5.99877 25.4872L7.76954 22.9913H7.76928C8.28084 22.2484 8.37849 21.2965 8.02863 20.4652C7.67903 19.6342 6.9298 19.0383 6.0414 18.8848L3.01197 18.4047V15.2049L6.01992 14.6822V14.682C6.90012 14.5234 7.639 13.9272 7.98019 13.1004C8.32137 12.2737 8.21757 11.3299 7.70548 10.5969L5.92414 8.12217L8.14267 5.8716L10.6386 7.64237V7.64211C11.3814 8.15367 12.3334 8.25132 13.1646 7.90146C13.9959 7.55186 14.5916 6.80263 14.7453 5.91423L15.2251 2.8848H18.425L18.9476 5.89275H18.9479C19.1064 6.77295 19.7027 7.51183 20.5294 7.85302C21.3565 8.19415 22.2999 8.0904 23.033 7.57831L25.5077 5.79697L27.7583 8.0155L25.9875 10.5114H25.9878C25.4765 11.2543 25.3785 12.2062 25.7284 13.0374C26.078 13.8687 26.8272 14.4644 27.7156 14.6182L30.7342 15.0982V18.2981L27.7477 18.7887Z" fill="#999999" stroke="#999999" stroke-width="0.0742188"/>
</svg>
