<svg width="52" height="52" viewBox="0 0 52 52" fill="none" xmlns="http://www.w3.org/2000/svg">
<rect width="52" height="52" rx="26" fill="#95E8AA"/>
<path d="M26 14C21.398 14 16.6113 15.0371 16.6113 15.0371L16.6074 15.041C16.1545 15.1317 15.7469 15.3764 15.4539 15.7335C15.1609 16.0906 15.0005 16.5381 15 17V23C15 33.398 25.0215 37.7441 25.0215 37.7441C25.3203 37.9119 25.6573 38 26 38C26.3414 37.9993 26.6769 37.9112 26.9746 37.7441H26.9785C26.9785 37.7441 37 33.398 37 23V17C37.0002 16.5369 36.8397 16.088 36.5459 15.73C36.252 15.372 35.843 15.1271 35.3887 15.0371C35.3887 15.0371 30.602 14 26 14Z" fill="#34C759"/>
</svg>
