<svg width="28" height="28" viewBox="0 0 28 28" fill="none" xmlns="http://www.w3.org/2000/svg">
<rect width="28" height="28" rx="8" fill="#007AFF"/>
<path d="M12.1576 6.66667C11.6522 6.66667 11.1908 6.95165 10.9648 7.40365L10.7018 7.92969C10.4758 8.38102 10.0138 8.66667 9.50912 8.66667H6.66667C5.93 8.66667 5.33334 9.26333 5.33334 10V18.6667C5.33334 19.4033 5.93 20 6.66667 20H21.3333C22.07 20 22.6667 19.4033 22.6667 18.6667V10C22.6667 9.26333 22.07 8.66667 21.3333 8.66667H18.4909C17.9856 8.66667 17.5242 8.38169 17.2982 7.92969L17.0352 7.40365C16.8092 6.95231 16.3471 6.66667 15.8424 6.66667H12.1576ZM8 7.33333C7.632 7.33333 7.33334 7.632 7.33334 8H9.33334C9.33334 7.632 9.03467 7.33333 8.66667 7.33333H8ZM14 9.33333C16.5733 9.33333 18.6667 11.4267 18.6667 14C18.6667 16.5733 16.5733 18.6667 14 18.6667C11.4267 18.6667 9.33334 16.5733 9.33334 14C9.33334 11.4267 11.4267 9.33333 14 9.33333ZM20 10C20.368 10 20.6667 10.2987 20.6667 10.6667C20.6667 11.0347 20.368 11.3333 20 11.3333C19.632 11.3333 19.3333 11.0347 19.3333 10.6667C19.3333 10.2987 19.632 10 20 10ZM14 10.6667C13.1159 10.6667 12.2681 11.0179 11.643 11.643C11.0179 12.2681 10.6667 13.1159 10.6667 14C10.6667 14.8841 11.0179 15.7319 11.643 16.357C12.2681 16.9821 13.1159 17.3333 14 17.3333C14.8841 17.3333 15.7319 16.9821 16.357 16.357C16.9821 15.7319 17.3333 14.8841 17.3333 14C17.3333 13.1159 16.9821 12.2681 16.357 11.643C15.7319 11.0179 14.8841 10.6667 14 10.6667Z" fill="white"/>
</svg>
