<svg width="28" height="28" viewBox="0 0 28 28" fill="none" xmlns="http://www.w3.org/2000/svg">
<rect width="28" height="28" rx="8" fill="#FF2D55"/>
<path d="M6.66667 7.33334C5.93 7.33334 5.33334 7.93 5.33334 8.66667V19.3333C5.33334 20.07 5.93 20.6667 6.66667 20.6667H21.3333C22.07 20.6667 22.6667 20.07 22.6667 19.3333V8.66667C22.6667 7.93 22.07 7.33334 21.3333 7.33334H6.66667ZM18 9.33334C19.4727 9.33334 20.6667 10.5273 20.6667 12C20.6667 13.4727 19.4727 14.6667 18 14.6667C16.5273 14.6667 15.3333 13.4727 15.3333 12C15.3333 10.5273 16.5273 9.33334 18 9.33334ZM8 10.6667H12.6667C13.0347 10.6667 13.3333 10.9653 13.3333 11.3333C13.3333 11.7013 13.0347 12 12.6667 12H8C7.632 12 7.33334 11.7013 7.33334 11.3333C7.33334 10.9653 7.632 10.6667 8 10.6667ZM18 10.6667C17.6464 10.6667 17.3072 10.8071 17.0572 11.0572C16.8071 11.3072 16.6667 11.6464 16.6667 12C16.6667 12.3536 16.8071 12.6928 17.0572 12.9428C17.3072 13.1929 17.6464 13.3333 18 13.3333C18.3536 13.3333 18.6928 13.1929 18.9428 12.9428C19.1929 12.6928 19.3333 12.3536 19.3333 12C19.3333 11.6464 19.1929 11.3072 18.9428 11.0572C18.6928 10.8071 18.3536 10.6667 18 10.6667ZM8 13.3333H12.6667C13.0347 13.3333 13.3333 13.632 13.3333 14C13.3333 14.368 13.0347 14.6667 12.6667 14.6667H8C7.632 14.6667 7.33334 14.368 7.33334 14C7.33334 13.632 7.632 13.3333 8 13.3333ZM8 16H11.3333C11.7013 16 12 16.2987 12 16.6667C12 17.0347 11.7013 17.3333 11.3333 17.3333H8C7.632 17.3333 7.33334 17.0347 7.33334 16.6667C7.33334 16.2987 7.632 16 8 16Z" fill="white"/>
</svg>
