<svg width="28" height="28" viewBox="0 0 28 28" fill="none" xmlns="http://www.w3.org/2000/svg">
<rect width="28" height="28" rx="8" fill="#FFDB4D"/>
<path d="M14 5.33331C14 5.33331 10 7.99998 10 14C10 14.1059 10.0091 14.212 10.0156 14.3177C9.32625 14.8751 8 16.069 8 17.0299C8 18.2426 9.21224 20.6666 9.21224 20.6666L11.4128 17.9153L12 19.3333H16L16.5872 17.9153L18.7878 20.6666C18.7878 20.6666 20 18.2426 20 17.0299C20 16.069 18.6738 14.8751 17.9844 14.3177C17.9909 14.212 18 14.1059 18 14C18 7.99998 14 5.33331 14 5.33331ZM14 9.99998C14.7367 9.99998 15.3333 10.5966 15.3333 11.3333C15.3333 12.07 14.7367 12.6666 14 12.6666C13.2633 12.6666 12.6667 12.07 12.6667 11.3333C12.6667 10.5966 13.2633 9.99998 14 9.99998ZM12.2786 20C12.106 20.2226 12 20.4785 12 20.7552C12 22.0239 14 23.3333 14 23.3333C14 23.3333 16 22.0412 16 20.7552C16 20.4785 15.8947 20.2233 15.7227 20H15.1589C15.1709 20.0513 15.2005 20.097 15.2005 20.151C15.2005 21.057 14 21.5104 14 21.5104C14 21.5104 12.7995 21.057 12.7995 20.151C12.7995 20.0977 12.8291 20.0513 12.8411 20H12.2786Z" fill="white"/>
</svg>
