<svg width="200" height="200" viewBox="0 0 200 200" fill="none" xmlns="http://www.w3.org/2000/svg">
<rect width="200" height="200" rx="100" fill="url(#paint0_linear_154_14114)"/>
<path fill-rule="evenodd" clip-rule="evenodd" d="M100 162.5C65.4822 162.5 37.5 134.518 37.5 100C37.5 65.4822 65.4822 37.5 100 37.5C134.518 37.5 162.5 65.4822 162.5 100C162.5 134.518 134.518 162.5 100 162.5ZM100 156.25C131.066 156.25 156.25 131.066 156.25 100C156.25 68.934 131.066 43.75 100 43.75C68.934 43.75 43.75 68.934 43.75 100C43.75 131.066 68.934 156.25 100 156.25ZM99.926 143.75C77.6512 143.75 56.5109 122.386 56.5109 106.947C56.5109 98.0858 75.7635 108.75 99.926 108.75C124.088 108.75 143.554 98.1003 143.489 106.947C143.38 121.908 122.201 143.75 99.926 143.75ZM99.926 124.062C120.637 124.062 134.964 116.056 134.964 110.282C134.964 104.508 120.637 113.725 99.926 113.725C79.2153 113.725 65.1262 105.614 65.1262 110.282C65.1262 114.95 79.2153 124.062 99.926 124.062ZM81.1719 88.9061C77.0729 88.9061 73.75 85.5832 73.75 81.4842C73.75 77.3852 77.0729 74.0623 81.1719 74.0623C85.2709 74.0623 88.5938 77.3852 88.5938 81.4842C88.5938 85.5832 85.2709 88.9061 81.1719 88.9061ZM118.672 88.9061C114.573 88.9061 111.25 85.5832 111.25 81.4842C111.25 77.3852 114.573 74.0623 118.672 74.0623C122.771 74.0623 126.094 77.3852 126.094 81.4842C126.094 85.5832 122.771 88.9061 118.672 88.9061Z" fill="black"/>
<defs>
<linearGradient id="paint0_linear_154_14114" x1="0" y1="0" x2="200" y2="200" gradientUnits="userSpaceOnUse">
<stop stop-color="#1100FF"/>
<stop offset="1" stop-color="#6D2323"/>
</linearGradient>
</defs>
</svg>
