<svg width="52" height="52" viewBox="0 0 52 52" fill="none" xmlns="http://www.w3.org/2000/svg">
<path d="M52 26C52 40.3594 40.3594 52 26 52C11.6406 52 0 40.3594 0 26C0 11.6406 11.6406 0 26 0C40.3594 0 52 11.6406 52 26Z" fill="url(#paint0_linear_169_514)"/>
<path d="M26.5 13.1667C19.6883 13.1667 14.1666 18.6883 14.1666 25.5C14.1666 32.3117 19.6883 37.8333 26.5 37.8333C33.3117 37.8333 38.8333 32.3117 38.8333 25.5C38.8333 18.6883 33.3117 13.1667 26.5 13.1667ZM27.7333 30.9242V32.9H25.2666V30.9304C23.4524 30.59 22.3116 29.475 22.245 27.8458H24.3811C24.4835 28.7017 25.3468 29.2506 26.5912 29.2506C27.7395 29.2506 28.5522 28.6943 28.5522 27.8964C28.5522 27.223 28.0256 26.8357 26.7306 26.557L25.3554 26.2647C23.4314 25.8626 22.4867 24.8599 22.4867 23.2504C22.4867 21.631 23.5585 20.4766 25.2666 20.0968V18.1H27.7333V20.0931C29.3983 20.4655 30.5108 21.6002 30.565 23.1332H28.4869C28.3845 22.2995 27.6087 21.7433 26.5407 21.7433C25.4356 21.7433 24.7042 22.2551 24.7042 23.0605C24.7042 23.7117 25.2087 24.0854 26.4457 24.3481L27.7185 24.6194C29.8411 25.0659 30.755 25.981 30.755 27.6189C30.755 29.3825 29.6228 30.5653 27.7333 30.9242Z" fill="#32ADE6"/>
<defs>
<linearGradient id="paint0_linear_169_514" x1="26" y1="0" x2="26" y2="52" gradientUnits="userSpaceOnUse">
<stop stop-color="#00FFFF"/>
<stop offset="1" stop-color="#009999"/>
</linearGradient>
</defs>
</svg>
