<svg width="28" height="28" viewBox="0 0 28 28" fill="none" xmlns="http://www.w3.org/2000/svg">
<rect width="28" height="28" rx="8" fill="#FFAE00"/>
<path d="M8 6.66669C7.26333 6.66669 6.66666 7.26335 6.66666 8.00002V9.33335C6.66666 10.07 7.26333 10.6667 8 10.6667H20C20.7367 10.6667 21.3333 10.07 21.3333 9.33335V8.00002C21.3333 7.26335 20.7367 6.66669 20 6.66669H8ZM8.66666 8.00002C9.03466 8.00002 9.33333 8.29869 9.33333 8.66669C9.33333 9.03469 9.03466 9.33335 8.66666 9.33335C8.29866 9.33335 8 9.03469 8 8.66669C8 8.29869 8.29866 8.00002 8.66666 8.00002ZM8 12C7.26333 12 6.66666 12.5967 6.66666 13.3334V14.6667C6.66666 15.4034 7.26333 16 8 16H20C20.7367 16 21.3333 15.4034 21.3333 14.6667V13.3334C21.3333 12.5967 20.7367 12 20 12H8ZM8.66666 13.3334C9.03466 13.3334 9.33333 13.632 9.33333 14C9.33333 14.368 9.03466 14.6667 8.66666 14.6667C8.29866 14.6667 8 14.368 8 14C8 13.632 8.29866 13.3334 8.66666 13.3334ZM8 17.3334C7.26333 17.3334 6.66666 17.93 6.66666 18.6667V20C6.66666 20.7367 7.26333 21.3334 8 21.3334H20C20.7367 21.3334 21.3333 20.7367 21.3333 20V18.6667C21.3333 17.93 20.7367 17.3334 20 17.3334H8ZM8.66666 18.6667C9.03466 18.6667 9.33333 18.9654 9.33333 19.3334C9.33333 19.7014 9.03466 20 8.66666 20C8.29866 20 8 19.7014 8 19.3334C8 18.9654 8.29866 18.6667 8.66666 18.6667Z" fill="white"/>
</svg>
