<svg width="28" height="28" viewBox="0 0 28 28" fill="none" xmlns="http://www.w3.org/2000/svg">
<rect width="28" height="28" rx="8" fill="#007AFF"/>
<path d="M8.66666 6.66666C7.57002 6.66666 6.66666 7.57002 6.66666 8.66666V19.3333C6.66666 20.438 7.562 21.3333 8.66666 21.3333H20C20.7367 21.3333 21.3333 20.7367 21.3333 20V10.6667C21.3333 9.93 20.7367 9.33333 20 9.33333H14.6667H8.66666C8.28998 9.33333 8 9.04335 8 8.66666C8 8.28998 8.28998 8 8.66666 8H18.6667C18.755 8.00124 18.8427 7.98492 18.9247 7.95198C19.0067 7.91904 19.0813 7.87013 19.1442 7.8081C19.2071 7.74607 19.2571 7.67216 19.2912 7.59065C19.3253 7.50915 19.3428 7.42168 19.3428 7.33333C19.3428 7.24498 19.3253 7.15751 19.2912 7.076C19.2571 6.9945 19.2071 6.92059 19.1442 6.85856C19.0813 6.79653 19.0067 6.74762 18.9247 6.71468C18.8427 6.68173 18.755 6.66541 18.6667 6.66666H8.66666ZM18.6667 14C19.4033 14 20 14.5967 20 15.3333C20 16.07 19.4033 16.6667 18.6667 16.6667C17.93 16.6667 17.3333 16.07 17.3333 15.3333C17.3333 14.5967 17.93 14 18.6667 14Z" fill="white"/>
</svg>
