<svg width="17" height="23" viewBox="0 0 17 23" fill="none" xmlns="http://www.w3.org/2000/svg">
<path d="M8.51514 0.706543C5.54023 0.706543 3.17236 3.06992 3.17236 5.91846C3.17236 8.0669 4.51724 9.94067 6.45508 10.7309C2.96099 11.625 0.381836 14.7512 0.381836 18.4877V19.4794C0.381646 19.6425 0.462134 19.7951 0.596982 19.8868C2.84649 21.4243 5.55841 22.3238 8.49981 22.3238C11.4285 22.3238 14.1561 21.4373 16.4026 19.9099C16.5375 19.8181 16.6182 19.6655 16.6178 19.5024V18.4877C16.6178 14.7564 14.0469 11.6298 10.5602 10.7309C12.5015 9.94224 13.8506 8.06939 13.8506 5.91846C13.8506 3.06982 11.4902 0.706543 8.51514 0.706543ZM8.51514 1.62896C10.8604 1.62896 12.8048 3.51914 12.8048 5.9186C12.8048 8.31826 10.8604 10.2083 8.51514 10.2083C6.17007 10.2083 4.21025 8.31826 4.21025 5.9186C4.21025 3.51914 6.17007 1.62896 8.51514 1.62896ZM8.49988 11.4537C12.4641 11.4537 15.6337 14.5876 15.6337 18.4878V19.2182C13.5879 20.5523 11.1415 21.3399 8.49988 21.3399C5.84753 21.3399 3.41687 20.5413 1.3656 19.1951V18.4878C1.3656 14.5877 4.53523 11.4537 8.49988 11.4537Z" fill="black" stroke="black" stroke-width="0.0488281"/>
</svg>
