<svg width="28" height="28" viewBox="0 0 28 28" fill="none" xmlns="http://www.w3.org/2000/svg">
<rect width="28" height="28" rx="8" fill="#00D135"/>
<path d="M18.6667 5.33333H9.33333C8.59667 5.33333 8 5.92999 8 6.66666V21.3333C8 22.07 8.59667 22.6667 9.33333 22.6667H18.6667C19.4033 22.6667 20 22.07 20 21.3333V6.66666C20 5.92999 19.4033 5.33333 18.6667 5.33333ZM14 17.6667C13.448 17.6667 13 17.2187 13 16.6667C13 16.1147 13.448 15.6667 14 15.6667C14.552 15.6667 15 16.1147 15 16.6667C15 17.2187 14.552 17.6667 14 17.6667ZM11.3333 12.6667C10.9653 12.6667 10.6667 12.368 10.6667 12C10.6667 11.632 10.9653 11.3333 11.3333 11.3333C11.7013 11.3333 12 11.632 12 12C12 12.368 11.7013 12.6667 11.3333 12.6667ZM14 20.6667C13.632 20.6667 13.3333 20.368 13.3333 20C13.3333 19.632 13.632 19.3333 14 19.3333C14.368 19.3333 14.6667 19.632 14.6667 20C14.6667 20.368 14.368 20.6667 14 20.6667ZM11.3333 8.66666C10.9653 8.66666 10.6667 8.36799 10.6667 7.99999C10.6667 7.63199 10.9653 7.33333 11.3333 7.33333C11.7013 7.33333 12 7.63199 12 7.99999C12 8.36799 11.7013 8.66666 11.3333 8.66666ZM18.6667 13.3333H9.33333V10.6667H18.6667V13.3333ZM18.6667 9.33333H9.33333V6.66666H18.6667V9.33333Z" fill="white"/>
</svg>
