<svg width="28" height="28" viewBox="0 0 28 28" fill="none" xmlns="http://www.w3.org/2000/svg">
<path d="M14 4.66663C5.67626 4.66663 0.299589 13.2637 0.202344 13.4203C0.0714498 13.5852 0.000141514 13.7894 0 14C0.000165576 14.1806 0.052724 14.3572 0.151302 14.5086C0.152511 14.5104 0.153726 14.5122 0.154948 14.514C0.170995 14.5471 4.68424 23.3333 14 23.3333C23.2762 23.3333 27.7828 14.6335 27.8378 14.5268C27.8415 14.5207 27.8451 14.5147 27.8487 14.5086C27.9473 14.3572 27.9998 14.1806 28 14C28 13.7903 27.9293 13.5867 27.7995 13.4221C27.7989 13.4215 27.7983 13.4209 27.7977 13.4203C27.7004 13.2637 22.3237 4.66663 14 4.66663ZM14 7.46663C17.6083 7.46663 20.5333 10.3917 20.5333 14C20.5333 17.6082 17.6083 20.5333 14 20.5333C10.3917 20.5333 7.46667 17.6082 7.46667 14C7.46667 10.3917 10.3917 7.46663 14 7.46663ZM14 11.2C13.2574 11.2 12.5452 11.495 12.0201 12.0201C11.495 12.5452 11.2 13.2574 11.2 14C11.2 14.7426 11.495 15.4548 12.0201 15.9799C12.5452 16.505 13.2574 16.8 14 16.8C14.7426 16.8 15.4548 16.505 15.9799 15.9799C16.505 15.4548 16.8 14.7426 16.8 14C16.8 13.2574 16.505 12.5452 15.9799 12.0201C15.4548 11.495 14.7426 11.2 14 11.2Z" fill="#777777"/>
</svg>
