<svg width="93" height="80" viewBox="0 0 93 80" fill="none" xmlns="http://www.w3.org/2000/svg">
<circle cx="46.5" cy="40" r="40" fill="#F4D0D4"/>
<path d="M46.2227 29C44.9957 29 44 29.9957 44 31.2227C44 33.0137 46.5975 35.2517 47.6055 36.0547C47.8385 36.2397 48.1615 36.2397 48.3945 36.0547C49.4035 35.2517 52 33.0137 52 31.2227C52 29.9957 51.0043 29 49.7773 29C49.0463 29 48.405 29.3564 48 29.9004C47.595 29.3564 46.9527 29 46.2227 29ZM46 37C45.8197 37.0006 45.6404 37.0256 45.4668 37.0742L45.4648 37.0703L38.2305 39.0684L38.2051 39.0801L38.1973 39.082C37.7005 39.1853 37.2279 39.3822 36.8047 39.6621C36.8014 39.6641 36.7982 39.666 36.7949 39.668L32 42V51.8965L38 48L49.0195 51.7402C49.3186 51.9096 49.6563 51.9991 50 52C50.3136 51.9995 50.6227 51.9252 50.9023 51.7832H50.9043C50.9063 51.7819 50.9082 51.7806 50.9102 51.7793C51.0509 51.7079 51.1827 51.62 51.3027 51.5176L59.8105 45.8262C60.2284 45.6396 60.5696 45.3154 60.7772 44.9076C60.9849 44.4998 61.0464 44.0332 60.9516 43.5855C60.8568 43.1378 60.6113 42.7362 60.2561 42.4477C59.901 42.1592 59.4576 42.0011 59 42C58.5255 42.0002 58.0665 42.1691 57.7051 42.4766L52.5645 45.6504L53.123 43.8301C53.29 43.2841 53.2873 42.7012 53.1133 42.1582L51.918 38.4453C51.7979 38.0292 51.5459 37.6634 51.2001 37.4027C50.8542 37.1421 50.4331 37.0008 50 37C49.6594 37.0006 49.3246 37.0882 49.0273 37.2545C48.73 37.4208 48.4802 37.6602 48.3014 37.9501C48.1226 38.24 48.0208 38.5708 48.0056 38.9111C47.9905 39.2514 48.0625 39.5899 48.2148 39.8945L49.1621 43.0195L48.3105 45.0781L48 45L43 43L46.7344 40.8594C47.1668 40.688 47.526 40.3713 47.7502 39.9637C47.9743 39.5561 48.0494 39.0831 47.9624 38.6261C47.8755 38.1692 47.632 37.7568 47.2738 37.46C46.9156 37.1632 46.4652 37.0005 46 37Z" fill="#FF3B30"/>
</svg>
