<svg width="55" height="48" viewBox="0 0 55 48" fill="none" xmlns="http://www.w3.org/2000/svg">
<mask id="mask0_105_376" style="mask-type:luminance" maskUnits="userSpaceOnUse" x="10" y="8" width="35" height="16">
<path d="M44.5543 8.22046V23.4988H10.9449V8.22046H44.5543Z" fill="white" stroke="white" stroke-width="0.390625"/>
</mask>
<g mask="url(#mask0_105_376)">
<path d="M44.3068 21.4373L28.4929 8.32452L28.4926 8.3248C28.282 8.1491 28.0197 8.05347 27.7495 8.05347C27.479 8.05347 27.2167 8.1491 27.006 8.3248L11.1921 21.4376V21.4373C10.8615 21.7128 10.6978 22.1497 10.7624 22.5842C10.8273 23.0184 11.1104 23.384 11.5058 23.543C11.901 23.702 12.3481 23.6304 12.6787 23.3553L27.7496 10.865L42.8205 23.3713C43.1508 23.6465 43.5979 23.7181 43.9933 23.5591C44.3885 23.4 44.6719 23.0344 44.7365 22.6003C44.8011 22.1658 44.6374 21.7289 44.3071 21.4534L44.3068 21.4373Z" fill="#007AFF" stroke="#007AFF" stroke-width="0.390625"/>
</g>
<path d="M17.0751 22.9225V39.4775H38.4242V22.9225L27.75 13.694L17.0751 22.9225ZM36.0521 37.0188H19.4472V24.0696L27.7493 16.89L36.0514 24.0696L36.0521 37.0188Z" fill="#007AFF" stroke="#007AFF" stroke-width="0.390625"/>
</svg>
