<svg width="28" height="28" viewBox="0 0 28 28" fill="none" xmlns="http://www.w3.org/2000/svg">
<rect width="28" height="28" rx="8" fill="#8E8E93"/>
<path d="M14 6C10.932 6 7.74088 6.69141 7.74088 6.69141L7.73828 6.69401C7.43632 6.75446 7.16459 6.91757 6.96925 7.15563C6.7739 7.3937 6.66699 7.69205 6.66666 8V12C6.66666 18.932 13.3477 21.8294 13.3477 21.8294C13.5469 21.9412 13.7715 22 14 22C14.2276 21.9995 14.4513 21.9408 14.6497 21.8294H14.6523C14.6523 21.8294 21.3333 18.932 21.3333 12V8C21.3335 7.69123 21.2265 7.39198 21.0306 7.15333C20.8347 6.91467 20.562 6.75141 20.2591 6.69141C20.2591 6.69141 17.068 6 14 6Z" fill="white"/>
</svg>
