<svg width="28" height="28" viewBox="0 0 28 28" fill="none" xmlns="http://www.w3.org/2000/svg">
<rect width="28" height="28" rx="8" fill="#32ADE6"/>
<path d="M13.3333 6C12.2811 6 11.4156 6.83377 11.3464 7.86979L10.6901 11.1523L9.42708 14.612C9.40456 14.644 9.374 14.6667 9.33333 14.6667H8.66667H6.66667C6.29867 14.6667 6 14.9653 6 15.3333V20.6667C6 21.0347 6.29867 21.3333 6.66667 21.3333H8C8.368 21.3333 8.66667 21.0347 8.66667 20.6667H11.2839C12.3809 20.6667 13.3684 20.136 14 19.3086C14.6316 20.136 15.6191 20.6667 16.7161 20.6667H19.3333C19.3333 21.0347 19.632 21.3333 20 21.3333H21.3333C21.7013 21.3333 22 21.0347 22 20.6667V15.3333C22 14.9653 21.7013 14.6667 21.3333 14.6667H20H19.3333H18.6667C18.626 14.6667 18.5954 14.644 18.5729 14.612L17.3099 11.1523L16.6536 7.86979C16.5844 6.83377 15.7189 6 14.6667 6C14.4399 6 14.2085 6.04355 14 6.15104C13.7915 6.04355 13.5601 6 13.3333 6ZM13.3099 7.34375C13.3224 7.43886 13.3333 7.65791 13.3333 8V13.3333V17.6237C13.1475 18.6155 12.2961 19.3333 11.2839 19.3333H8.66667V16H9.33333C9.8574 16 10.3436 15.716 10.6003 15.2591L10.6276 15.2109L11.9766 11.5143L12.6667 8.06641V8C12.6667 7.63411 12.9482 7.35786 13.3099 7.34375ZM14.6901 7.34375C15.0518 7.35786 15.3333 7.63411 15.3333 8V8.06641L16.0234 11.5143L17.3724 15.2109L17.3997 15.2591C17.6564 15.7159 18.1426 16 18.6667 16H19.3333V19.3333H16.7161C15.7039 19.3333 14.8525 18.6155 14.6667 17.6237V13.3333V8C14.6667 7.65791 14.6776 7.43886 14.6901 7.34375Z" fill="white"/>
</svg>
