<svg width="92" height="80" viewBox="0 0 92 80" fill="none" xmlns="http://www.w3.org/2000/svg">
<circle cx="46" cy="40" r="40" fill="#C4F3CC"/>
<path d="M35 29C34.8701 29.0004 34.7406 29.0135 34.6133 29.0391C34.6027 29.0412 34.5926 29.0446 34.582 29.0469C34.1348 29.1425 33.7338 29.3885 33.4459 29.7439C33.158 30.0993 33.0006 30.5426 33 31V43C33.0004 43.1299 33.0135 43.2594 33.0391 43.3867C33.0412 43.3973 33.0446 43.4074 33.0469 43.418C33.1425 43.8652 33.3885 44.2662 33.7439 44.5541C34.0993 44.842 34.5426 44.9994 35 45H57C57.1299 44.9996 57.2594 44.9865 57.3867 44.9609C57.3973 44.9588 57.4074 44.9554 57.418 44.9531C57.8652 44.8575 58.2662 44.6115 58.5541 44.2561C58.842 43.9007 58.9994 43.4574 59 43V31C58.9996 30.8701 58.9865 30.7406 58.9609 30.6133C58.9588 30.6027 58.9554 30.5926 58.9531 30.582C58.8575 30.1348 58.6115 29.7338 58.2561 29.4459C57.9007 29.158 57.4574 29.0006 57 29H35ZM37 31H55C55 31.5304 55.2107 32.0391 55.5858 32.4142C55.9609 32.7893 56.4696 33 57 33V41C56.4696 41 55.9609 41.2107 55.5858 41.5858C55.2107 41.9609 55 42.4696 55 43H37C37 42.4696 36.7893 41.9609 36.4142 41.5858C36.0391 41.2107 35.5304 41 35 41V33C35.5304 33 36.0391 32.7893 36.4142 32.4142C36.7893 32.0391 37 31.5304 37 31ZM46 33C43.791 33 42 35.015 42 37.5C42 38.922 42.5977 40.175 43.5137 41H48.4863C49.4023 40.175 50 38.922 50 37.5C50 35.015 48.209 33 46 33ZM38 36C37.7348 36 37.4804 36.1054 37.2929 36.2929C37.1054 36.4804 37 36.7348 37 37C37 37.2652 37.1054 37.5196 37.2929 37.7071C37.4804 37.8946 37.7348 38 38 38C38.2652 38 38.5196 37.8946 38.7071 37.7071C38.8946 37.5196 39 37.2652 39 37C39 36.7348 38.8946 36.4804 38.7071 36.2929C38.5196 36.1054 38.2652 36 38 36ZM54 36C53.7348 36 53.4804 36.1054 53.2929 36.2929C53.1054 36.4804 53 36.7348 53 37C53 37.2652 53.1054 37.5196 53.2929 37.7071C53.4804 37.8946 53.7348 38 54 38C54.2652 38 54.5196 37.8946 54.7071 37.7071C54.8946 37.5196 55 37.2652 55 37C55 36.7348 54.8946 36.4804 54.7071 36.2929C54.5196 36.1054 54.2652 36 54 36ZM56.9844 46.9863C56.9359 46.9874 56.8876 46.9919 56.8398 47H56V48V49C55.1613 49 54.4457 49.5163 54.1484 50.248C53.1929 49.8922 51.9971 49.472 50.4492 49.0371C46.8166 48.0165 41.6026 47 35 47C34.8675 46.9981 34.7359 47.0226 34.613 47.072C34.49 47.1214 34.3781 47.1948 34.2837 47.2878C34.1893 47.3809 34.1144 47.4918 34.0632 47.614C34.0121 47.7363 33.9858 47.8675 33.9858 48C33.9858 48.1325 34.0121 48.2637 34.0632 48.386C34.1144 48.5082 34.1893 48.6191 34.2837 48.7122C34.3781 48.8052 34.49 48.8786 34.613 48.928C34.7359 48.9774 34.8675 49.0019 35 49C41.3974 49 46.422 49.9835 49.9082 50.9629C51.6513 51.4526 53.0074 51.9406 53.9668 52.3086C54.4465 52.4926 54.8265 52.6462 55.1172 52.7598C55.2625 52.8165 55.383 52.8628 55.5 52.9023C55.6028 52.937 55.6727 52.9808 55.918 52.9922C55.9458 52.9947 55.9718 53.0098 56 53.0098C57.0761 53.0098 57.9368 52.159 57.9902 51.1016C57.9968 51.055 58.0001 51.008 58 50.9609V49V48V47H57.1543C57.0981 46.9906 57.0413 46.986 56.9844 46.9863Z" fill="#34C759"/>
</svg>
