<svg width="28" height="28" viewBox="0 0 28 28" fill="none" xmlns="http://www.w3.org/2000/svg">
<rect width="28" height="28" rx="8" fill="#30B0C7"/>
<path d="M12.6667 6C11.2018 6 10 7.2018 10 8.66667C10 9.9002 10.8561 10.9371 12 11.237V12.763C10.8561 13.0629 10 14.0998 10 15.3333C10 15.5245 10.0223 15.7105 10.0612 15.8906L8.71485 16.5638C8.3544 16.2168 7.86783 16 7.33334 16C6.23666 16 5.33334 16.9033 5.33334 18C5.33334 19.0967 6.23666 20 7.33334 20C8.43001 20 9.33334 19.0967 9.33334 18C9.33334 17.9172 9.31859 17.8381 9.3086 17.7578L10.6693 17.0768C11.1593 17.6369 11.8699 18 12.6667 18C13.3908 18 14.0491 17.7045 14.5313 17.2305L16.7878 18.5846C16.7166 18.8238 16.6667 19.0721 16.6667 19.3333C16.6667 20.7982 17.8685 22 19.3333 22C20.7982 22 22 20.7982 22 19.3333C22 17.8685 20.7982 16.6667 19.3333 16.6667C18.6088 16.6667 17.9497 16.9618 17.4674 17.4362L15.2109 16.0833C15.2824 15.8437 15.3333 15.5952 15.3333 15.3333C15.3333 14.0998 14.4772 13.0629 13.3333 12.763V11.237C14.4772 10.9371 15.3333 9.9002 15.3333 8.66667C15.3333 7.2018 14.1315 6 12.6667 6ZM12.6667 7.33333C13.4109 7.33333 14 7.92239 14 8.66667C14 9.41094 13.4109 10 12.6667 10C11.9224 10 11.3333 9.41094 11.3333 8.66667C11.3333 7.92239 11.9224 7.33333 12.6667 7.33333ZM12.6667 14C13.4109 14 14 14.5891 14 15.3333C14 16.0776 13.4109 16.6667 12.6667 16.6667C11.9224 16.6667 11.3333 16.0776 11.3333 15.3333C11.3333 14.5891 11.9224 14 12.6667 14ZM7.33334 17.3333C7.70942 17.3333 8 17.6239 8 18C8 18.3761 7.70942 18.6667 7.33334 18.6667C6.95725 18.6667 6.66667 18.3761 6.66667 18C6.66667 17.6239 6.95725 17.3333 7.33334 17.3333ZM19.3333 18C20.0776 18 20.6667 18.5891 20.6667 19.3333C20.6667 20.0776 20.0776 20.6667 19.3333 20.6667C18.5891 20.6667 18 20.0776 18 19.3333C18 18.5891 18.5891 18 19.3333 18Z" fill="white"/>
</svg>
