<svg width="52" height="52" viewBox="0 0 52 52" fill="none" xmlns="http://www.w3.org/2000/svg">
<rect width="52" height="52" rx="26" fill="#FFCDCA"/>
<path d="M20.5449 15C16.9299 15 14 17.9299 14 21.5449C14 27.8373 21.299 33.8498 24.709 36.5273C24.7122 36.53 24.7155 36.5326 24.7188 36.5352C24.7421 36.5535 24.7739 36.5796 24.7969 36.5977L24.7988 36.5957C25.1448 36.8571 25.5664 36.999 26 37C26.4343 36.9994 26.8566 36.8575 27.2031 36.5957V36.5977C27.2099 36.5924 27.2198 36.5854 27.2266 36.5801C27.2317 36.576 27.239 36.5705 27.2441 36.5664C27.2507 36.5606 27.2572 36.5547 27.2637 36.5488C30.6631 33.8809 38 27.8523 38 21.5449C38 17.9299 35.0701 15 31.4551 15C28.0001 15 26 18 26 18C26 18 23.9999 15 20.5449 15Z" fill="#FF3B30"/>
</svg>
