<svg width="28" height="28" viewBox="0 0 28 28" fill="none" xmlns="http://www.w3.org/2000/svg">
<rect width="28" height="28" rx="8" fill="#FF3B30"/>
<path d="M7.33334 6C7.15652 6 6.98696 6.07024 6.86193 6.19526C6.73691 6.32029 6.66667 6.48986 6.66667 6.66667C6.66681 6.72697 6.67513 6.78698 6.69141 6.84505C6.69184 6.84636 6.69227 6.84766 6.69271 6.84896L7.33334 11.3333L5.33334 12.6667L19.3333 14L5.33334 15.3333L7.33334 16.6667L6.69271 21.1523C6.67576 21.2112 6.667 21.2721 6.66667 21.3333C6.66667 21.5101 6.73691 21.6797 6.86193 21.8047C6.98696 21.9298 7.15652 22 7.33334 22C7.42197 21.9995 7.50961 21.9814 7.59115 21.9466L7.59245 21.9479L7.6211 21.9336L7.63542 21.9271C7.63935 21.925 7.64325 21.9228 7.64714 21.9206L22.2604 14.6146L22.2617 14.612C22.3817 14.5608 22.484 14.4755 22.556 14.3667C22.628 14.2579 22.6664 14.1304 22.6667 14C22.6666 13.8692 22.628 13.7413 22.5558 13.6323C22.4836 13.5232 22.3808 13.4378 22.2604 13.3867V13.3854H22.2591L7.65235 6.08203C7.6329 6.07105 7.6129 6.06106 7.59245 6.05208C7.51042 6.0176 7.42232 5.9999 7.33334 6Z" fill="white"/>
</svg>
