<svg width="52" height="52" viewBox="0 0 52 52" fill="none" xmlns="http://www.w3.org/2000/svg">
<rect width="52" height="52" rx="26" fill="#A4E6E3"/>
<path d="M25 14C23.895 14 23 14.895 23 16H15C13.895 16 13 16.895 13 18V27C13 28.105 13.895 29 15 29H37C38.105 29 39 28.105 39 27V18C39 16.895 38.105 16 37 16H29C29 14.895 28.105 14 27 14H25ZM26 25C26.552 25 27 25.448 27 26C27 26.552 26.552 27 26 27C25.448 27 25 26.552 25 26C25 25.448 25.448 25 26 25ZM13 30.4434V34C13 35.105 13.895 36 15 36H37C38.105 36 39 35.105 39 34V30.4434C38.409 30.7874 37.732 31 37 31H15C14.268 31 13.591 30.7874 13 30.4434Z" fill="#00C7BE"/>
</svg>
