<svg width="23" height="25" viewBox="0 0 23 25" fill="none" xmlns="http://www.w3.org/2000/svg">
<path fill-rule="evenodd" clip-rule="evenodd" d="M22.0737 12.418C22.2227 12.5542 22.3074 12.7468 22.3074 12.9486C22.3074 13.1504 22.2227 13.343 22.0737 13.4792L17.1651 17.9725C16.9757 18.1461 16.7081 18.2052 16.4632 18.1278C16.2183 18.0505 16.0332 17.8483 15.9777 17.5975C15.9222 17.3467 16.0048 17.0854 16.1942 16.9121L19.7371 13.6684H6.64778C6.45457 13.6722 6.26803 13.598 6.13011 13.4628C5.99218 13.3276 5.91458 13.1425 5.91458 12.9493C5.91458 12.7563 5.9922 12.5711 6.13011 12.4358C6.26801 12.3006 6.45455 12.2266 6.64778 12.2304H19.7376L16.1946 8.98623C16.0511 8.85805 15.9651 8.678 15.9554 8.48613C15.9458 8.29406 16.0134 8.10638 16.1433 7.96445C16.273 7.82273 16.4542 7.73881 16.6462 7.73156C16.8383 7.72431 17.0254 7.79432 17.1654 7.92592L22.0737 12.418ZM8.69094 23.0171H2.13088L2.13069 1.98096H8.69075C8.94748 1.98096 9.18474 1.84401 9.31331 1.62162C9.44167 1.39922 9.44167 1.12513 9.31331 0.902718C9.18475 0.680321 8.94748 0.543182 8.69075 0.543182H1.41194C1.22121 0.543182 1.03829 0.619096 0.903442 0.753944C0.768594 0.888983 0.692871 1.0719 0.692871 1.26264V23.7368C0.692871 23.9275 0.768594 24.1104 0.903442 24.2454C1.03829 24.3803 1.22121 24.4562 1.41194 24.4564H8.69075C8.94748 24.4564 9.18474 24.3195 9.31331 24.0969C9.44167 23.8745 9.44167 23.6006 9.31331 23.378C9.18475 23.1556 8.94748 23.0186 8.69075 23.0186L8.69094 23.0171Z" fill="black" stroke="black" stroke-width="0.0488281"/>
</svg>
