<svg width="52" height="52" viewBox="0 0 52 52" fill="none" xmlns="http://www.w3.org/2000/svg">
<rect width="52" height="52" rx="26" fill="#EBC3FF"/>
<path d="M14 15C13.7348 15 13.4805 15.1054 13.2929 15.2929C13.1054 15.4805 13 15.7348 13 16V18.2773C12.4044 18.6236 12 19.2611 12 20V34.0449C12 35.1179 12.8548 35.9941 13.9258 36.0371C18.7407 36.2332 22.2091 37.1286 24.1621 37.7832C24.3156 38.1438 24.5716 38.4513 24.8983 38.6676C25.225 38.884 25.6081 38.9995 26 39C26.3922 38.9999 26.7757 38.8845 27.1028 38.6682C27.43 38.4518 27.6863 38.1441 27.8398 37.7832C29.7931 37.1287 33.2605 36.2345 38.0742 36.0391C39.1452 35.9951 40 35.1179 40 34.0449V20C40 19.2611 39.5956 18.6236 39 18.2773V16C39 15.7348 38.8946 15.4805 38.7071 15.2929C38.5195 15.1054 38.2652 15 38 15C33.4259 15 30.3384 15.5075 28.3672 16.0332C26.77 16.4591 26.2944 16.7862 26 16.9531C25.7056 16.7862 25.23 16.4591 23.6328 16.0332C21.6616 15.5075 18.5741 15 14 15ZM15 17.0547C18.782 17.1316 21.4986 17.5352 23.1172 17.9668C24.0972 18.2281 24.6526 18.4443 25 18.6035V34.5723C23.4377 34.0424 20.145 33.1833 15 33.0605V17.0547ZM37 17.0547V33.0605C31.855 33.1833 28.5623 34.0424 27 34.5723V18.6035C27.3474 18.4443 27.9028 18.2281 28.8828 17.9668C30.5014 17.5352 33.218 17.1316 37 17.0547Z" fill="#AF52DE"/>
</svg>
