<svg width="52" height="52" viewBox="0 0 52 52" fill="none" xmlns="http://www.w3.org/2000/svg">
<path d="M52 26C52 40.3594 40.3594 52 26 52C11.6406 52 0 40.3594 0 26C0 11.6406 11.6406 0 26 0C40.3594 0 52 11.6406 52 26Z" fill="url(#paint0_linear_169_510)"/>
<path d="M21.5 14C17.358 14 14 17.358 14 21.5C14 25.111 17.7041 29.1858 20.9961 32.0938C22.0733 33.0452 23.3538 33.6364 24.6836 33.8711L24.5254 34.3418C24.4174 34.6658 24.659 35 25 35H27C27.341 35 27.5826 34.6658 27.4746 34.3418L27.3164 33.8711C28.6462 33.6364 29.9267 33.0452 31.0039 32.0938C34.2959 29.1858 38 25.111 38 21.5C38 17.358 34.642 14 30.5 14C28.809 14 27.254 14.5658 26 15.5098C24.746 14.5658 23.191 14 21.5 14ZM26 36C25.7348 36 25.4804 36.1054 25.2929 36.2929C25.1054 36.4804 25 36.7348 25 37C25 37.2652 25.1054 37.5196 25.2929 37.7071C25.4804 37.8946 25.7348 38 26 38C26.2652 38 26.5196 37.8946 26.7071 37.7071C26.8946 37.5196 27 37.2652 27 37C27 36.7348 26.8946 36.4804 26.7071 36.2929C26.5196 36.1054 26.2652 36 26 36ZM27 39C26.7348 39 26.4804 39.1054 26.2929 39.2929C26.1054 39.4804 26 39.7348 26 40C26 40.2652 26.1054 40.5196 26.2929 40.7071C26.4804 40.8946 26.7348 41 27 41C27.2652 41 27.5196 40.8946 27.7071 40.7071C27.8946 40.5196 28 40.2652 28 40C28 39.7348 27.8946 39.4804 27.7071 39.2929C27.5196 39.1054 27.2652 39 27 39Z" fill="#FF3B30"/>
<defs>
<linearGradient id="paint0_linear_169_510" x1="26" y1="0" x2="26" y2="52" gradientUnits="userSpaceOnUse">
<stop stop-color="#00FF2F"/>
<stop offset="1" stop-color="#00991C"/>
</linearGradient>
</defs>
</svg>
