<svg width="28" height="28" viewBox="0 0 28 28" fill="none" xmlns="http://www.w3.org/2000/svg">
<rect width="28" height="28" rx="8" fill="#AF52DE"/>
<path d="M7.33333 7.33334C6.59667 7.33334 6 7.93001 6 8.66668V18.6667C6 19.4033 6.59667 20 7.33333 20H10V22.6667C10 22.8435 10.0702 23.0131 10.1953 23.1381C10.3203 23.2631 10.4899 23.3333 10.6667 23.3333C10.7778 23.3331 10.8871 23.3052 10.9847 23.2519C11.0822 23.1987 11.1649 23.122 11.2253 23.0287L13.5 20H20.6667C21.4033 20 22 19.4033 22 18.6667V8.66668C22 7.93001 21.4033 7.33334 20.6667 7.33334H7.33333ZM10 9.33334C10.2667 9.33334 10.5086 9.49166 10.6133 9.73699L12.6133 14.4037C12.7586 14.7417 12.601 15.1346 12.263 15.28C12.1777 15.3173 12.088 15.3333 12 15.3333C11.7413 15.3333 11.4947 15.1824 11.3867 14.9297L11.2747 14.6667H8.72526L8.61328 14.9297C8.46861 15.2684 8.07431 15.4266 7.73698 15.28C7.39898 15.1346 7.24139 14.7423 7.38672 14.405L9.38672 9.73829C9.49139 9.49229 9.73333 9.33334 10 9.33334ZM18 11.3346C18.368 11.3346 18.6667 11.6326 18.6667 12.0013V12.668H20C20.368 12.668 20.6667 12.966 20.6667 13.3346C20.6667 13.7033 20.368 14 20 14H19.9271C19.7878 14.6927 19.4505 15.5029 18.9518 16.2136L19.7331 16.7995C20.0277 17.0202 20.0879 17.4391 19.8672 17.7331C19.7365 17.9084 19.5347 17.9987 19.332 17.9987C19.1934 17.9987 19.0536 17.9559 18.9336 17.8659L18.0508 17.2044C17.4721 17.6844 16.782 18 16 18C15.632 18 15.3333 17.702 15.3333 17.3333C15.3333 16.9647 15.632 16.6667 16 16.6667C16.3347 16.6667 16.6501 16.5537 16.9414 16.3724L16.2669 15.8672C15.9723 15.6465 15.9121 15.2276 16.1328 14.9336C16.3541 14.6389 16.7717 14.5808 17.0664 14.8008L17.8971 15.4232C18.2098 14.9699 18.4405 14.4586 18.5638 14.0013H16C15.632 14.0013 15.3333 13.7033 15.3333 13.3346C15.3333 12.966 15.632 12.668 16 12.668H17.3333V12.0013C17.3333 11.6326 17.632 11.3346 18 11.3346ZM10 11.6927L9.29688 13.3333H10.7031L10 11.6927Z" fill="white"/>
</svg>
