<svg width="33" height="33" viewBox="0 0 33 33" fill="none" xmlns="http://www.w3.org/2000/svg">
<path d="M16.6361 0.751462C12.3925 0.751462 8.32263 2.43699 5.32235 5.4378C2.32152 8.43824 0.635986 12.5081 0.635986 16.7515V28.0454C0.635986 29.2938 1.13162 30.4907 2.01431 31.373C2.89665 32.2557 4.09386 32.7513 5.3419 32.7513H16.6359C20.8791 32.7513 24.949 31.0658 27.9496 28.0649C30.9505 25.0645 32.636 20.9946 32.636 16.7513C32.636 12.5077 30.9505 8.43788 27.9496 5.43762C24.9492 2.43681 20.8793 0.751282 16.6359 0.751282L16.6361 0.751462ZM16.6361 30.8689H5.34207C4.59318 30.8689 3.87515 30.5715 3.34547 30.0419C2.81586 29.5127 2.51847 28.7943 2.51847 28.0453V16.7514C2.51847 13.007 4.00574 9.41594 6.65344 6.76844C9.30079 4.12075 12.8918 2.63348 16.6365 2.63348C20.3806 2.63348 23.9716 4.12075 26.6186 6.76844C29.2663 9.41576 30.7536 13.0068 30.7536 16.7514C30.7536 20.4955 29.2663 24.0865 26.6186 26.7335C23.9712 29.3811 20.3802 30.8684 16.6365 30.8684L16.6361 30.8689ZM23.6948 16.7516C23.6948 17.1261 23.546 17.4851 23.2815 17.7499C23.0167 18.0144 22.6573 18.1633 22.2832 18.1633C21.9088 18.1633 21.5494 18.0144 21.2849 17.7499C21.0201 17.4851 20.8712 17.1261 20.8712 16.7516C20.8712 16.3772 21.0201 16.0182 21.2849 15.7533C21.5494 15.4885 21.9088 15.3397 22.2832 15.3397C22.6573 15.3397 23.0167 15.4885 23.2815 15.7533C23.546 16.0181 23.6948 16.3772 23.6948 16.7516ZM18.0477 16.7516C18.0477 17.1261 17.8988 17.4851 17.6343 17.7499C17.3695 18.0144 17.0105 18.1633 16.636 18.1633C16.2616 18.1633 15.9026 18.0144 15.6377 17.7499C15.3729 17.4851 15.2241 17.1261 15.2241 16.7516C15.2241 16.3772 15.3729 16.0182 15.6377 15.7533C15.9025 15.4885 16.2616 15.3397 16.636 15.3397C17.0105 15.3397 17.3695 15.4885 17.6343 15.7533C17.8988 16.0181 18.0477 16.3772 18.0477 16.7516ZM12.4005 16.7516C12.4005 17.1261 12.252 17.4851 11.9872 17.7499C11.7224 18.0144 11.3633 18.1633 10.9889 18.1633C10.6144 18.1633 10.2554 18.0144 9.99056 17.7499C9.72575 17.4851 9.57688 17.1261 9.57688 16.7516C9.57688 16.3772 9.72575 16.0182 9.99056 15.7533C10.2554 15.4885 10.6144 15.3397 10.9889 15.3397C11.3633 15.3397 11.7223 15.4885 11.9872 15.7533C12.252 16.0181 12.4005 16.3772 12.4005 16.7516Z" fill="#999999"/>
<path d="M23.6948 16.7513V16.7516M23.6948 16.7516C23.6948 17.1261 23.546 17.4851 23.2815 17.7499C23.0167 18.0144 22.6573 18.1633 22.2832 18.1633C21.9088 18.1633 21.5494 18.0144 21.2849 17.7499C21.0201 17.4851 20.8712 17.1261 20.8712 16.7516C20.8712 16.3772 21.0201 16.0182 21.2849 15.7533C21.5494 15.4885 21.9088 15.3397 22.2832 15.3397C22.6573 15.3397 23.0167 15.4885 23.2815 15.7533C23.546 16.0181 23.6948 16.3772 23.6948 16.7516ZM18.0477 16.7513V16.7516M18.0477 16.7516C18.0477 17.1261 17.8988 17.4851 17.6343 17.7499C17.3695 18.0144 17.0105 18.1633 16.636 18.1633C16.2616 18.1633 15.9026 18.0144 15.6377 17.7499C15.3729 17.4851 15.2241 17.1261 15.2241 16.7516C15.2241 16.3772 15.3729 16.0182 15.6377 15.7533C15.9025 15.4885 16.2616 15.3397 16.636 15.3397C17.0105 15.3397 17.3695 15.4885 17.6343 15.7533C17.8988 16.0181 18.0477 16.3772 18.0477 16.7516ZM12.4005 16.7513V16.7516M12.4005 16.7516C12.4005 17.1261 12.252 17.4851 11.9872 17.7499C11.7224 18.0144 11.3633 18.1633 10.9889 18.1633C10.6144 18.1633 10.2554 18.0144 9.99056 17.7499C9.72575 17.4851 9.57688 17.1261 9.57688 16.7516C9.57688 16.3772 9.72575 16.0182 9.99056 15.7533C10.2554 15.4885 10.6144 15.3397 10.9889 15.3397C11.3633 15.3397 11.7223 15.4885 11.9872 15.7533C12.252 16.0181 12.4005 16.3772 12.4005 16.7516ZM16.6361 0.751462C12.3925 0.751462 8.32263 2.43699 5.32235 5.4378C2.32152 8.43824 0.635986 12.5081 0.635986 16.7515V28.0454C0.635986 29.2938 1.13162 30.4907 2.01431 31.373C2.89665 32.2557 4.09386 32.7513 5.3419 32.7513H16.6359C20.8791 32.7513 24.949 31.0658 27.9496 28.0649C30.9505 25.0645 32.636 20.9946 32.636 16.7513C32.636 12.5077 30.9505 8.43788 27.9496 5.43762C24.9492 2.43681 20.8793 0.751282 16.6359 0.751282L16.6361 0.751462ZM16.6361 30.8689H5.34207C4.59318 30.8689 3.87515 30.5715 3.34547 30.0419C2.81586 29.5127 2.51847 28.7943 2.51847 28.0453V16.7514C2.51847 13.007 4.00574 9.41594 6.65344 6.76844C9.30078 4.12075 12.8918 2.63348 16.6365 2.63348C20.3806 2.63348 23.9716 4.12075 26.6186 6.76844C29.2663 9.41576 30.7536 13.0068 30.7536 16.7514C30.7536 20.4955 29.2663 24.0865 26.6186 26.7335C23.9712 29.3811 20.3802 30.8684 16.6365 30.8684L16.6361 30.8689Z" stroke="#999999" stroke-width="0.390625"/>
</svg>
