<svg width="28" height="28" viewBox="0 0 28 28" fill="none" xmlns="http://www.w3.org/2000/svg">
<rect width="28" height="28" rx="8" fill="#FF9500"/>
<g clip-path="url(#clip0_361_2286)">
<path d="M7.33334 8.00001C7.24499 7.99876 7.15729 8.01508 7.07531 8.04802C6.99333 8.08096 6.91871 8.12987 6.8558 8.1919C6.79289 8.25393 6.74293 8.32784 6.70883 8.40935C6.67473 8.49085 6.65717 8.57832 6.65717 8.66667C6.65717 8.75502 6.67473 8.84249 6.70883 8.924C6.74293 9.0055 6.79289 9.07942 6.8558 9.14145C6.91871 9.20348 6.99333 9.25238 7.07531 9.28532C7.15729 9.31827 7.24499 9.33459 7.33334 9.33334H20C20.0883 9.33459 20.1761 9.31827 20.258 9.28532C20.34 9.25238 20.4146 9.20348 20.4775 9.14145C20.5404 9.07942 20.5904 9.0055 20.6245 8.924C20.6586 8.84249 20.6762 8.75502 20.6762 8.66667C20.6762 8.57832 20.6586 8.49085 20.6245 8.40935C20.5904 8.32784 20.5404 8.25393 20.4775 8.1919C20.4146 8.12987 20.34 8.08096 20.258 8.04802C20.1761 8.01508 20.0883 7.99876 20 8.00001H7.33334ZM7.33334 10.6667C6.23669 10.6667 5.33334 11.57 5.33334 12.6667V18C5.33334 19.0967 6.23669 20 7.33334 20H20C21.0966 20 22 19.0967 22 18V12.6667C22 11.57 21.0966 10.6667 20 10.6667H7.33334ZM7.33334 12H20C20.3767 12 20.6667 12.29 20.6667 12.6667V18C20.6667 18.3767 20.3767 18.6667 20 18.6667H7.33334C6.95665 18.6667 6.66667 18.3767 6.66667 18V12.6667C6.66667 12.29 6.95665 12 7.33334 12ZM8 13.3333V17.3333H19.3333V13.3333H8ZM22.6667 14V16.6667H23.3333C23.7013 16.6667 24 16.368 24 16V14.6667C24 14.2987 23.7013 14 23.3333 14H22.6667Z" fill="white"/>
</g>
<defs>
<clipPath id="clip0_361_2286">
<rect width="20" height="20" fill="white" transform="translate(4 4)"/>
</clipPath>
</defs>
</svg>
