<svg width="33" height="33" viewBox="0 0 33 33" fill="none" xmlns="http://www.w3.org/2000/svg">
<path d="M16.7093 3.79926C9.57037 3.79926 3.75732 9.61259 3.75732 16.7513C3.75732 23.8899 9.57066 29.7033 16.7093 29.7033C23.848 29.7033 29.6613 23.8899 29.6613 16.7513C29.661 9.6123 23.848 3.79926 16.7093 3.79926ZM16.7093 28.1796C10.4086 28.1796 5.28096 23.0522 5.28096 16.7513C5.28096 10.4505 10.4084 5.32289 16.7093 5.32289C23.0101 5.32289 28.1377 10.4503 28.1377 16.7513C28.1374 23.052 23.01 28.1796 16.7093 28.1796Z" fill="#999999" stroke="black" stroke-width="0.0664062"/>
<path d="M15.9952 12.9418H18.2809C18.7 12.9418 19.0428 13.2846 19.0428 13.7037C19.0428 14.1228 19.3856 14.4656 19.8047 14.4656C20.2237 14.4656 20.5665 14.1228 20.5665 13.7037C20.5665 12.4464 19.5381 11.418 18.2809 11.418H17.519V10.6561C17.519 10.237 17.1762 9.89423 16.7571 9.89423C16.338 9.89423 15.9952 10.237 15.9952 10.6561V11.418C14.3115 11.418 12.9476 12.7819 12.9476 14.4656C12.9476 16.1493 14.3115 17.5131 15.9952 17.5131H17.519C18.3572 17.5131 19.0428 18.1988 19.0428 19.0369C19.0428 19.8751 18.3571 20.5607 17.519 20.5607H15.2333C14.8142 20.5607 14.4714 20.2179 14.4714 19.7988C14.4714 19.3797 14.1286 19.0369 13.7095 19.0369C13.2904 19.0369 12.9476 19.3797 12.9476 19.7988C12.9476 21.056 13.9761 22.0845 15.2333 22.0845H15.9952V22.8464C15.9952 23.2655 16.338 23.6083 16.7571 23.6083C17.1762 23.6083 17.519 23.2654 17.519 22.8464V22.0845C19.2027 22.0845 20.5665 20.7206 20.5665 19.0369C20.5665 17.3532 19.2027 15.9894 17.519 15.9894H15.9952C15.157 15.9894 14.4714 15.3037 14.4714 14.4656C14.4714 13.6274 15.157 12.9418 15.9952 12.9418Z" fill="#999999" stroke="black" stroke-width="0.0664062"/>
<path d="M16.7573 6.84656C11.2944 6.84656 6.85254 11.2883 6.85254 16.7513C6.85254 22.2142 11.2943 26.656 16.7573 26.656C22.2202 26.656 26.662 22.2142 26.662 16.7513C26.6617 11.2884 22.2199 6.84656 16.7573 6.84656ZM16.7573 25.1317C12.1326 25.1317 8.37618 21.3755 8.37618 16.7506C8.37618 12.1259 12.1324 8.36947 16.7573 8.36947C21.3822 8.36947 25.1384 12.1256 25.1384 16.7506C25.1381 21.3755 21.3822 25.1317 16.7573 25.1317Z" fill="#999999" stroke="black" stroke-width="0.0664062"/>
</svg>
